<svg xmlns="http://www.w3.org/2000/svg" viewBox="0 0 32 28" fill="none" aria-hidden="true">
  <path d="M16 4.2V23.2" stroke="#3a3228" stroke-width="1.5" stroke-linecap="round"/>
  <path d="M16 4.2C12.4 3.5 6.8 3 3.8 4.8C2.2 5.7 2 7.2 2 9.2v11.2c0 1.6 4.6 2.2 14 2.8" stroke="#3a3228" stroke-width="1.7" stroke-linejoin="round"/>
  <path d="M16 4.2c3.6-.7 9.2-1.2 12.2.6 1.6.9 1.8 2.4 1.8 4.4v11.2c0 1.6-4.6 2.2-14 2.8" stroke="#3a3228" stroke-width="1.7" stroke-linejoin="round"/>
  <path d="M6 9.2h7.2M6 12.4h6.4M6 15.6h7.2" stroke="#3a3228" stroke-width="1.25" stroke-linecap="round"/>
  <path d="M26 9.2h-7.2M26 12.4h-6.4M26 15.6h-7.2" stroke="#3a3228" stroke-width="1.25" stroke-linecap="round"/>
</svg>
